<?xml version="1.0" encoding="iso-8859-1"?>
<!-- Generator: Adobe Illustrator 18.1.1, SVG Export Plug-In . SVG Version: 6.00 Build 0)  -->
<svg version="1.1" id="Layer_1" xmlns="http://www.w3.org/2000/svg" xmlns:xlink="http://www.w3.org/1999/xlink" x="0px" y="0px"
	 viewBox="0 0 229 109.5" style="enable-background:new 0 0 229 109.5;" xml:space="preserve">
<style type="text/css">
	.st0{fill:#414042;}
	.st1{fill:#939598;stroke:#FFFFFF;stroke-miterlimit:10;}
</style>
<g>
	<g>
		<path class="st0" d="M33.9,98.6v-5.4c5.2,0,7.8-1.6,7.8-4.8l0.3-6.8V30.3l-0.3-6.9c0-3.2-2.6-4.8-7.8-4.8v-5.4h32.4v5.4
			c-3.1,0.1-5,0.4-5.8,0.9c-0.8,0.4-1.2,1.7-1.2,3.9L59,30.3v21.2L80.7,30l4.9-5.4c2.1-2.3,3.2-3.7,3.2-4.4c0-1-1.2-1.5-3.6-1.5
			h-1.4v-5.4h21.5v5.4h-1.4c-2.8,0-5.6,1.4-8.3,4.1l-7.4,7.4L70.8,47.5L96,82l5.7,6.9c2.1,2.8,4.5,4.1,7.1,4.1v5.4H78v-5.4
			c1.8-0.1,2.8-0.7,2.8-1.9c0-0.4-0.7-1.6-2.1-3.8l-3.7-5.6L59.1,58.6H59v22.9l0.2,6.8c0,3.2,2.2,4.8,6.5,4.8v5.4H33.9z"/>
	</g>
	<g>
		<path class="st0" d="M5.8,98.7V83h6.7v1.7c0,3.6,0.2,5.9,0.5,6.9c0.4,1,1.6,1.5,3.7,1.5l7,0.2h4.6c6.4,0.6,9.4-0.4,9.7-2.3
			c0.2-1.6,0.9-4.6,0.9-9.3V56H28.8l-4.7,0.2c-2.3,0-3.4,1.2-3.4,3.7V62h-5.9V44.9h5.9v2.1c0,2.5,1.1,3.8,3.4,3.8l4.7,0.2h10.1V18.7
			H21.7c-5.3,0-8,1.5-8,4.4l-0.1,3.8v1.4H7.6v-15h58.5v5.5c-5.7,0-8.5,1.6-8.5,4.8l-0.3,6.9v51.3l0.3,6.8c0,3.2,2.8,4.8,8.5,4.8v5.5
			H5.8z"/>
	</g>
</g>
<g>
	<g>
		<path class="st1" d="M33.9,96.5V91c5.2,0,7.8-1.6,7.8-4.8l0.3-6.8V28.2l-0.3-6.9c0-3.2-2.6-4.8-7.8-4.8v-5.4h32.4v5.4
			c-3.1,0.1-5,0.4-5.8,0.9c-0.8,0.4-1.2,1.7-1.2,3.9L59,28.2v21.2l21.6-21.6l4.9-5.4c2.1-2.3,3.2-3.7,3.2-4.4c0-1-1.2-1.5-3.6-1.5
			h-1.4v-5.4h21.5v5.4h-1.4c-2.8,0-5.6,1.4-8.3,4.1l-7.4,7.4L70.8,45.4L96,79.9l5.7,6.9c2.1,2.8,4.5,4.1,7.1,4.1v5.4H78V91
			c1.8-0.1,2.8-0.7,2.8-1.9c0-0.4-0.7-1.6-2.1-3.8l-3.7-5.6L59.1,56.5H59v22.9l0.2,6.8c0,3.2,2.2,4.8,6.5,4.8v5.4H33.9z"/>
	</g>
	<g>
		<path class="st1" d="M5.8,96.6V80.9h6.7v1.7c0,3.6,0.2,5.9,0.5,6.9c0.4,1,1.6,1.5,3.7,1.5l7,0.2h4.6c6.4,0.6,9.4-0.4,9.7-2.3
			c0.2-1.6,0.9-4.6,0.9-9.3V53.9H28.8l-4.7,0.2c-2.3,0-3.4,1.2-3.4,3.7v2.1h-5.9V42.8h5.9v2.1c0,2.5,1.1,3.8,3.4,3.8l4.7,0.2h10.1
			V16.6H21.7c-5.3,0-8,1.5-8,4.4l-0.1,3.8v1.4H7.6v-15h58.5v5.5c-5.7,0-8.5,1.6-8.5,4.8l-0.3,6.9v51.3l0.3,6.8
			c0,3.2,2.8,4.8,8.5,4.8v5.5H5.8z"/>
	</g>
</g>
<g>
	<path class="st0" d="M123.7,99.1c-6.1,0-10.9-2.2-14.5-6.7c-3.6-4.5-5.4-10.5-5.4-18c0-7.7,1.8-13.7,5.3-18.1
		c3.6-4.4,8.5-6.6,14.7-6.7c6.2,0,11.1,2.2,14.8,6.6c3.6,4.4,5.4,10.4,5.5,18c0,7.8-1.8,13.9-5.4,18.3
		C135.1,96.9,130.1,99.1,123.7,99.1z M124.2,95.4c5,0,7.5-7.1,7.5-21.4c0-13.8-2.6-20.7-7.8-20.7c-5.1,0-7.7,7-7.6,21
		C116.3,88.4,118.9,95.4,124.2,95.4z"/>
	<path class="st0" d="M163,99.3c-6.1,0-10.9-2.2-14.5-6.7c-3.6-4.5-5.4-10.5-5.4-18c0-7.7,1.8-13.7,5.3-18.1
		c3.6-4.4,8.5-6.6,14.7-6.7c6.2,0,11.1,2.2,14.8,6.6c3.6,4.4,5.4,10.4,5.5,18c0,7.8-1.8,13.9-5.4,18.3
		C174.4,97.1,169.4,99.3,163,99.3z M163.4,95.6c5,0,7.5-7.1,7.5-21.4c0-13.8-2.6-20.7-7.8-20.7c-5.1,0-7.7,7-7.6,21
		C155.6,88.6,158.2,95.6,163.4,95.6z"/>
	<path class="st0" d="M177.9,98.5v-3.9c2.8,0,4.4-0.5,4.9-1.5c0.5-1,0.7-3.2,0.7-6.7V62.3c0-3.5-0.2-5.8-0.7-6.7
		c-0.5-1-2.1-1.5-4.9-1.5v-3.9h11.6l23.8,30.2V62.3l-0.2-4.8c0-2.2-1.8-3.4-5.4-3.4v-3.9h17.2v3.9c-3.6,0-5.4,1.1-5.4,3.4l-0.2,4.8
		v36.6h-6l-23.8-30.6v18.1l0.2,4.8c0,2.3,1.8,3.4,5.4,3.4v3.9H177.9z"/>
</g>
<g>
	<path class="st1" d="M123.7,97.3c-6.1,0-10.9-2.2-14.5-6.7c-3.6-4.5-5.4-10.5-5.4-18c0-7.7,1.8-13.7,5.3-18.1
		c3.6-4.4,8.5-6.6,14.7-6.7c6.2,0,11.1,2.2,14.8,6.6c3.6,4.4,5.4,10.4,5.5,18c0,7.8-1.8,13.9-5.4,18.3
		C135.1,95.1,130.1,97.3,123.7,97.3z M124.2,93.6c5,0,7.5-7.1,7.5-21.4c0-13.8-2.6-20.7-7.8-20.7c-5.1,0-7.7,7-7.6,21
		C116.3,86.6,118.9,93.6,124.2,93.6z"/>
	<path class="st1" d="M163,97.5c-6.1,0-10.9-2.2-14.5-6.7c-3.6-4.5-5.4-10.5-5.4-18c0-7.7,1.8-13.7,5.3-18.1
		c3.6-4.4,8.5-6.6,14.7-6.7c6.2,0,11.1,2.2,14.8,6.6c3.6,4.4,5.4,10.4,5.5,18c0,7.8-1.8,13.9-5.4,18.3
		C174.4,95.2,169.4,97.5,163,97.5z M163.4,93.7c5,0,7.5-7.1,7.5-21.4c0-13.8-2.6-20.7-7.8-20.7c-5.1,0-7.7,7-7.6,21
		C155.6,86.7,158.2,93.8,163.4,93.7z"/>
	<path class="st1" d="M177.9,96.7v-3.9c2.8,0,4.4-0.5,4.9-1.5c0.5-1,0.7-3.2,0.7-6.7V60.5c0-3.5-0.2-5.8-0.7-6.7
		c-0.5-1-2.1-1.5-4.9-1.5v-3.9h11.6l23.8,30.2V60.5l-0.2-4.8c0-2.2-1.8-3.4-5.4-3.4v-3.9h17.2v3.9c-3.6,0-5.4,1.1-5.4,3.4l-0.2,4.8
		v36.6h-6l-23.8-30.6v18.1l0.2,4.8c0,2.3,1.8,3.4,5.4,3.4v3.9H177.9z"/>
</g>
</svg>
