<?xml version="1.0" encoding="utf-8"?>
<!-- Generator: Adobe Illustrator 18.1.1, SVG Export Plug-In . SVG Version: 6.00 Build 0)  -->
<svg version="1.1" id="Layer_1" xmlns="http://www.w3.org/2000/svg" xmlns:xlink="http://www.w3.org/1999/xlink" x="0px" y="0px"
	 viewBox="190 190 100 100" enable-background="new 190 190 100 100" xml:space="preserve">
<path fill="#0071BC" d="M188.9,188.9h102.2v102.2H188.9V188.9z"/>
<path fill="none" stroke="#FFFFFF" stroke-width="5" stroke-miterlimit="10" d="M251.6,218.5h20.7"/>
<path fill="#FFFFFF" d="M235.7,216.5c1.5,2,2.2,4.5,2.2,7.3c0,2.9-0.7,5.3-2.2,7c-0.8,1-2,1.9-3.7,2.7c2.4,0.9,4.3,2.3,5.5,4.2
	c1.2,1.9,1.9,4.3,1.9,7c0,2.8-0.7,5.4-2.1,7.6c-0.9,1.5-2,2.7-3.4,3.8c-1.5,1.2-3.3,2-5.4,2.4c-2.1,0.4-4.3,0.7-6.8,0.7h-21.6v-47.9
	h23.1C229.2,211.5,233.3,213.2,235.7,216.5L235.7,216.5z M209.7,219.8v10.6h11.6c2.1,0,3.8-0.4,5.1-1.2c1.3-0.8,1.9-2.2,1.9-4.2
	c0-2.2-0.9-3.7-2.6-4.4c-1.5-0.5-3.4-0.7-5.7-0.7L209.7,219.8L209.7,219.8z M209.7,238.2V251h11.6c2.1,0,3.7-0.3,4.9-0.9
	c2.1-1,3.2-3,3.2-6c0-2.5-1-4.2-3-5.1c-1.1-0.5-2.7-0.8-4.8-0.8H209.7L209.7,238.2z M270.4,224.6c2.5,1.1,4.5,2.9,6.1,5.2
	c1.4,2.1,2.4,4.5,2.8,7.3c0.3,1.6,0.3,4,0.3,7h-25.8c0.1,3.6,1.4,6,3.7,7.5c1.4,0.9,3.1,1.3,5.1,1.3c2.1,0,3.8-0.5,5.1-1.6
	c0.7-0.6,1.4-1.4,1.9-2.4h9.5c-0.3,2.1-1.4,4.2-3.4,6.4c-3.2,3.4-7.6,5.2-13.3,5.2c-4.7,0-8.9-1.4-12.5-4.4
	c-3.6-2.9-5.4-7.6-5.4-14.2c0-6.1,1.6-10.8,4.9-14.1c3.3-3.3,7.5-4.9,12.7-4.9C265.2,223,267.9,223.5,270.4,224.6L270.4,224.6z
	 M256.6,232.6c-1.3,1.3-2.1,3.2-2.5,5.5H270c-0.2-2.4-1-4.3-2.5-5.6c-1.5-1.3-3.3-1.9-5.5-1.9C259.7,230.6,257.9,231.3,256.6,232.6z
	"/>
</svg>
