<svg xmlns="http://www.w3.org/2000/svg" viewBox="0 0 480 480" enable-background="new 0 0 480 480"><style type="text/css">.st0{fill:#63CDF1;} .st1{fill:#A67C52;} .st2{fill:#87D3E0;} .st3{fill:#0071BC;} .st4{fill:#FFFFFF;} .st5{fill:none;stroke:#FFFFFF;stroke-width:50;stroke-miterlimit:10;} .st6{fill:#FFFFFF;stroke:#FFFFFF;stroke-width:50;stroke-miterlimit:10;} .st7{fill:none;stroke:#FFFFFF;stroke-width:20;stroke-miterlimit:10;}</style><path class="st3" d="M0 0h480v480h-480z"/><path class="st7" d="M299 139h97"/><path class="st4" d="M220 129.8c6.9 9.6 10.3 21 10.3 34.3 0 13.7-3.5 24.8-10.4 33.1-3.9 4.7-9.6 9-17.2 12.8 11.5 4.2 20.1 10.8 26 19.8 5.8 9.1 8.8 20 8.8 33 0 13.3-3.3 25.3-10 35.9-4.3 7-9.6 12.9-15.9 17.7-7.2 5.5-15.6 9.3-25.4 11.3-9.8 2-20.4 3.1-31.8 3.1h-101.4v-225h108.7c27.5.4 46.9 8.4 58.3 24zm-122.1 15.1v49.6h54.7c9.8 0 17.7-1.9 23.8-5.6 6.1-3.7 9.1-10.3 9.1-19.8 0-10.5-4-17.4-12.1-20.8-6.9-2.3-15.8-3.5-26.6-3.5h-48.9zm0 86.8v60h54.6c9.8 0 17.3-1.3 22.8-4 9.9-4.9 14.8-14.2 14.8-28.1 0-11.7-4.8-19.7-14.3-24.1-5.3-2.4-12.8-3.7-22.5-3.8h-55.4zM382.8 167.8c11.6 5.2 21.2 13.4 28.7 24.6 6.8 9.9 11.2 21.3 13.3 34.4 1.2 7.6 1.6 18.6 1.4 33h-121.1c.7 16.7 6.5 28.4 17.4 35.1 6.6 4.2 14.6 6.3 24 6.3 9.9 0 18-2.5 24.1-7.6 3.4-2.7 6.4-6.6 8.9-11.4h44.5c-1.2 9.9-6.6 19.9-16.1 30.1-14.9 16.2-35.7 24.3-62.6 24.3-22.1 0-41.7-6.8-58.6-20.5-16.9-13.6-25.4-35.8-25.4-66.6 0-28.8 7.6-50.9 22.9-66.3s35.1-23.1 59.5-23.1c14.5-.1 27.5 2.5 39.1 7.7zm-65 37.6c-6.1 6.3-10 14.9-11.6 25.7h74.9c-.8-11.5-4.7-20.3-11.6-26.3-6.9-6-15.5-9-25.8-9-11.1.1-19.8 3.2-25.9 9.6z"/></svg>