<?xml version="1.0" encoding="iso-8859-1"?>
<!-- Generator: Adobe Illustrator 18.1.1, SVG Export Plug-In . SVG Version: 6.00 Build 0)  -->
<svg version="1.1" id="Layer_1" xmlns="http://www.w3.org/2000/svg" xmlns:xlink="http://www.w3.org/1999/xlink" x="0px" y="0px"
	 viewBox="0 0 50 50" style="enable-background:new 0 0 50 50;" xml:space="preserve">
<style type="text/css">
	.st0{fill:#666666;}
	.st1{fill:#0071BC;}
	.st2{fill:#FFFFFF;stroke:#FFFFFF;stroke-miterlimit:10;}
	.st3{fill:#0071BC;stroke:#FFFFFF;stroke-miterlimit:10;}
</style>
<rect class="st0" width="50" height="50"/>
<g>
	<path class="st3" d="M33.8,37.8H16.2c-4,0-7.3-3.3-7.3-7.3v-9.8c0-4,3.3-7.3,7.3-7.3h17.7c4,0,7.3,3.3,7.3,7.3v9.8
		C41.2,34.5,37.9,37.8,33.8,37.8z"/>
	<path class="st3" d="M24.7,37.4l9.2,0.4c5.4,0,8.1-3.8,5.4-6.5l-4.3-4.3l-4.2-4.2c-2.7-2.7-9.5-2.7-12.3,0l-4.2,4.2l-4.3,4.3
		c-2.7,2.7,0,6.5,5.4,6.5L24.7,37.4z"/>
	<path class="st3" d="M25.1,13.3h8.5c5.4,0,8.8,2.4,6.1,4.4l-4.3,3.1l-4.2,3c-2.7,2-9.5,2-12.3,0l-4.2-3l-4.3-3.1
		c-2.7-2,0.7-4.4,6.1-4.4H25.1z"/>
</g>
</svg>
