<svg xmlns="http://www.w3.org/2000/svg" viewBox="0 0 480 480" enable-background="new 0 0 480 480"><style type="text/css">.st0{fill:#63CDF1;} .st1{fill:#A67C52;} .st2{fill:#87D3E0;} .st3{fill:#0071BC;} .st4{fill:#FFFFFF;} .st5{fill:none;stroke:#FFFFFF;stroke-width:50;stroke-miterlimit:10;} .st6{fill:#FFFFFF;stroke:#FFFFFF;stroke-width:50;stroke-miterlimit:10;} .st7{fill:none;stroke:#FFFFFF;stroke-width:20;stroke-miterlimit:10;}</style><path class="st1" d="M0 0h480v480h-480z"/><path class="st5" d="M336 102h-190.9c-8.9 0-17.1 2.5-23.9 7.1-.8.5-1.6 1-2.3 1.5-10.2 7.8-17 19.9-17 33.8v190.7c0 23.7 19.5 42.8 43.1 42.8h191c23.6 0 42-19.1 42-42.8v-190.6c0-23.7-18.4-42.5-42-42.5zm-97.5 203.3c-35.3 0-63.9-28.6-63.9-63.9 0-14.8 5-28.5 13.5-39.3 11.7-15 29.9-24.6 50.4-24.6 18.1 0 34.4 7.5 46 19.7.6.6 1.1 1.2 1.6 1.8l.2.3c.8.9 1.6 1.9 2.4 2.9.3.4.6.8.9 1.1l.6.8c.8 1 1.5 2.1 2.1 3.2.6.9 1.3 1.9 1.8 3 .5.8.9 1.6 1.3 2.3.4.6.7 1.3.9 1.9.7 1.3 1.3 2.6 1.8 4 .4.9.8 1.9 1.1 2.9.3.9.6 1.7.8 2.6 1 3.6 1.8 7.4 2.1 11.2.1.8.1 1.6.2 2.5.1 1.3.1 2.6.1 3.9-.1 35-28.7 63.7-63.9 63.7z"/><path class="st6" d="M284 102v95.2c-12-12.1-27.7-19.7-45.8-19.7-20.5 0-38.4 9.6-50.1 24.6h-86.1v-55.5c0-14.2 6.7-27.6 17-36 .7-.6 1.5-.9 2.2-1.4 6.3-4.6 14.1-7.1 22.5-7.1h140.3z"/><path class="st5" d="M378 144.5v57.5h-89.3c-.8 0-1.6-1.9-2.4-2.8-.1-.1-.4-.2-.5-.2-.5-.6-.9-1.2-1.9-1.8v-95.2h52c23.7 0 42.1 18.8 42.1 42.5z"/></svg>