<?xml version="1.0" encoding="utf-8"?>
<!-- Generator: Adobe Illustrator 18.1.1, SVG Export Plug-In . SVG Version: 6.00 Build 0)  -->
<svg version="1.1" id="Layer_1" xmlns="http://www.w3.org/2000/svg" xmlns:xlink="http://www.w3.org/1999/xlink" x="0px" y="0px"
	 viewBox="0 0 480 480" enable-background="new 0 0 480 480" xml:space="preserve">
<path fill="#FFFFFF" d="M261.1,277.5c-2.5-1.4-6.1-2.5-9.7-2.8c-3.6-0.3-12-1.4-11.4,0.6c0.3,1.7,8.3,4.2,13.9,5.8
	c5,1.7,8.9,6.1,8.9,11.1c0,10.6-8.9,22.8-27,37c-15.8,12.2-35.3,22.8-58.3,31.7c-23.1,8.9-45,13.3-65.8,13.3
	c-20.8,0-37.2-2.8-49.5-8.3c-11.9-5.3-20.5-12.5-25.3-20.8c-4.7-8.3-7.2-17.8-7.2-27.8c0-21.4,9.5-40.3,28.6-56.7
	c16.4-14.2,38.9-21.1,68.1-21.1l35.3,0.3c9.4,0,14.2-2.5,14.2-7.5c0-5.8-8.3-10.3-25.3-13.9c-7.5-1.7-14.7-3.9-22.2-6.4
	s-13-6.4-16.9-11.7c-3.9-5.3-5.8-11.1-5.8-17.5c0-15.8,8.3-30.8,25-44.5c13.9-11.4,29.4-19.4,46.1-24.4c16.9-5,33-7.5,48.6-7.5
	c15.5,0,26.7,3,33.3,9.2c5.3,4.7,8.1,9.7,8.1,15.3v2c-1.7,14.4-8.9,26.1-21.1,35c-6.1,4.4-12.5,6.9-19.2,7.8
	c-6.4,0.5-10.3,2.5-11.1,5c-0.3,1.4,0.8,1.9,3.3,1.9s5.8-0.6,9.7-1.4c16.1-3.3,29.7-9.7,41.1-18.9c11.4-9.2,17-18.6,17-28.6
	c0-6.9-3.9-13.9-12-20.8c-8-7-21.1-11.7-39.2-13.9c-4.5-0.3-8.9-0.6-13.6-0.6c-14.7,0-32.2,2.8-52.5,8.1
	c-20.3,5.3-39.7,15-58.1,29.2c-18.3,14.2-28.3,30.3-30,48v2c0,8,3.9,15.8,11.7,22.8c7.8,7,16.9,12.5,28,16.4
	c-10.5,0.3-22.5,2.5-35.8,6.4s-25.8,10-37.5,17.8c-11.7,8-20.6,16.7-26.7,25.8c-6.1,9.2-10.3,17.2-11.9,24.5c-2,7.2-2.8,13.3-2.8,18
	c0,5,1.1,10,3.1,15.3c7.5,20.8,23.6,35,48.6,41.9c13.9,4.5,32.2,6.7,55,6.7c22.5,0,46.9-4.2,72.8-11.9c25.8-7.8,47.5-18.6,64.4-32
	c16.9-13.3,25.6-26.4,25.6-38.6C275.6,290.3,271.1,282.8,261.1,277.5z M381.7,331.6c-6.6,9.5-10.9,15.5-13.9,19.5
	c-4.2,5.6-11.1,18.6-18.3,18.6c-2.8,0-4.7-2.5-5.5-4.4c-4.2-13.3-6.4-27.8-15.6-37.5c11.1-7.8,19.7-15.6,25.3-22.5
	c6.4-8.1,13.9-22.8,5.3-30.6c-3.1-2.2-10.8,5.3-8.9,6.4c7.8,8.6-0.8,21.7-6.9,28.3c-5,5.8-18.3,16.1-18.3,16.1
	c-1.1-0.3-2.2-0.3-3.3,0c2.8-10,3.3-15,3.3-19.5c0-24.4-18-36.1-39.7-38c-1.7-0.3-10.3-0.8-3.3,2.5c2.8,1.4,10.3,2.8,13.6,4.4
	c18,8.9,21.1,31.7,15.8,53.9c-14.7,7.5-29.4,18.6-36.9,30.3c-2.2,3.6-7,10.8-2.8,14.4c0.8,0.8,2.2,1.4,3,1.4
	c20.3,0.6,38.6-28.3,45-43.6c3.6,0.3,5.3,3.9,6.4,6.7c3.6,7.8,5,15.8,7.8,23.6c2,6.4,5.3,12.8,12.8,12.8c4.4,0,8.6-1.7,13.6-6.4
	c4.2-4.2,9.7-12.8,16.1-22c2.5-3.6,4.5-6.7,6.1-9.7v-5.6C382,331.1,381.9,331.3,381.7,331.6z M284.2,366.9c-7.8,2.8-7-2.2-5.6-4.2
	c3.6-5.6,20.3-21.7,30-25.6C301.7,349.2,295,361.7,284.2,366.9z M454.4,336.7c-1.9,0-4.4-0.3-4.4-2.5c0-8.1,7.5-17.8,8.6-26.7
	c0-2.8-1.4-5.3-4.2-5.3c-1.4,0-3,1.1-5.3,2.8c-2,1.7-4.5,4.4-7.2,7.8c-6.7,8.3-10.3,15-15,23.3c0.8-5.5,3.3-10.5,5.6-15.3l5-12.2
	c1.4-3,2.2-5,2.5-6.4c-3.1-0.5-7.8-0.5-8.9,2.8c-0.8,2.2-5,13.3-6.4,16.9c-1.2,3.6-2,6.5-2.3,8.7c-0.1,0.8-0.2,1.5-0.2,2.2v0.2
	c0,2.2,1.1,5.3,3.6,5.3c1.7,0,2.5-1.4,3.1-2.2c0.5-1.1,1.7-2.8,3-5.5c5.3-9.7,10.6-17.2,16.4-22.5c0.8-0.8,3.9-3.9,4.7-3.9
	c-2.2,9.4-8.6,20.3-9.5,28.6c-1.1,11.4,21.7,4.2,24.5-0.3v-1.7C463.6,333.9,459.4,336.7,454.4,336.7z M422.4,330.7
	c-3.5,1.2-7.2,0-10.2-5.4c2-4.7,3.1-8.9,3.1-12.5c-0.3-3.3-0.8-7-3.6-9.2c-1.4-1.1-3.6-1.1-5-0.3c-2.5,1.7-2.5,5.6-2.5,8.1
	c0,4.4,1.4,8.9,4.4,13.3c-1.4,4.2-3.3,7.2-5,9.5c-2.5,3-7.5,4.7-10,1.1c-0.8-1.1-1.4-3.1-1.4-5.6c0-9.4,7.2-16.4,12.2-22.8
	c-0.3-1.4-2.5-0.3-3,0c-8.1,4.5-13.9,14.7-13.9,23.3c0,0.3,0,0.5,0,0.8c0,0.7,0.2,1.5,0.4,2.1c1.1,3.9,4.5,6.3,8.8,6.3
	c2.5,0,5.3-1.1,7.8-3.3c2.5-1.9,4.5-4.7,7-8.6c2.6,4.1,6.6,7.2,10.8,5.3c0.6-0.3,1.3-0.7,2-1.2l0.3-2
	C423.8,330.1,423.1,330.4,422.4,330.7z M409.7,321.4c-2.2-3.9-3.3-7.8-3.3-11.7c0-1.9,0-4.4,1.7-5c2.2,0.6,2.2,7,2.2,8.3
	C410.3,316.1,410.3,318.9,409.7,321.4z M387.5,331.1c-2.9,0.3-5.9-1.3-8.6-5.8c1.9-4.7,3-8.9,3-12.5c-0.3-3.3-0.8-7-3.6-9.2
	c-1.4-1.1-3.6-1.1-5-0.3c-2.5,1.7-2.5,5.6-2.5,8.1c0,4.4,1.4,8.9,4.5,13.3c-1.4,4.2-3.3,7.2-5,9.5c-2.5,3-7.5,4.7-10,1.1
	c-0.8-1.1-1.4-3.1-1.4-5.6c0-9.4,7.2-16.4,12.2-22.8c-0.3-1.4-2.5-0.3-3,0c-8.1,4.5-13.9,14.7-13.9,23.3c0,5.5,3.9,9.2,9.2,9.2
	c2.5,0,5.3-1.1,7.8-3.3c2.5-1.9,4.5-4.7,7-8.6c1,1.6,2.3,3,3.6,4.1c0.2,0.1,0.3,0.3,0.5,0.4c1.7,1.2,3.7,1.7,5.7,1.2
	c1-0.2,1.9-0.7,2.9-1.5l0.3-2C390,330.5,388.8,330.9,387.5,331.1z M376.7,321.4c-2.2-3.9-3.3-7.8-3.3-11.7c0-1.9,0-4.4,1.7-5
	c2.2,0.6,2.2,7,2.2,8.3C377.2,316.1,377.2,318.9,376.7,321.4z M253.9,276.7l5,0.8C257.2,276.9,255.6,276.7,253.9,276.7z
	 M340.6,252.2c-0.5,0.3-1.1,0.5-1.6,0.8c0.1,1.6,0.6,2.9,1.3,4.1c0.3-0.1,0.6-0.3,0.9-0.4C340.8,255,340.6,253.6,340.6,252.2z
	 M340.6,252.2c-0.5,0.3-1.1,0.5-1.6,0.8c0.1,1.6,0.6,2.9,1.3,4.1c0.3-0.1,0.6-0.3,0.9-0.4C340.8,255,340.6,253.6,340.6,252.2z
	 M336.9,163.3c-4.2,0-7.5,3.3-7.5,7.5c0,3.9,3.3,7.2,7.5,7.2c3.9,0,7.2-3.3,7.2-7.2C344.2,166.7,340.8,163.3,336.9,163.3z"/>
<path fill="#FFFFFF" d="M472.8,249.7c-11.1,7-20.6,10.3-28.6,10.3c-5.3,0-7-1.4-7.2-4.4c0-2.2,3.3-12.2,9.7-28.9
	c1.7-4.7,12.5-30.3,12.5-32c0-1.1-1.1-1.9-2-1.9c-3.9,1.9-7.5,3.9-10.8,5.8c-18.9-12.2-35.3-2.2-48.1,13.3
	c-8,10.1-19.5,33.7-12.6,45.2c-3.6,1.4-7,2.1-10.1,2.1c-3.3,0-6.7-0.6-10-1.7c8-6.4,12.2-13.6,12.2-21.7c-0.3-6.7-2.5-13-4.2-19.2
	c5.8-8.6,8.6-16.1,8.6-22c0-2.2-0.5-4.2-1.7-5.8c-3.1-3.9-8.6-3.6-12-0.6c-5.8,4.7-8.3,15.3-8.3,22c0,5.3,0.5,10.3,1.7,15
	c-4.4,5-8.9,9.2-13,12.8c-5.3,4.4-10,7.5-10,14.2c0,0.3,0,0.5,0,0.8c0.5-0.2,1.1-0.5,1.6-0.8c0,1.4,0.3,2.8,0.5,4.5
	c-0.3,0.1-0.6,0.3-0.9,0.4c2.2,3.5,6.9,5.1,11.1,5.1c3.9,0,7.2-0.8,10.5-2.5c9.5,2.9,17.7,2.6,25.6-0.3c2.6,2.6,6.7,4.2,12.8,4.2
	c8.9,0,18-3,26.9-9.7c3.1,7.2,11.1,9.7,18.1,9.7c10.8-0.3,20-6.4,28.6-10.8v-4.2L472.8,249.7z M375.3,190.3c1.9,0.8,2.2,3.9,2.2,6.1
	c0,4.2-1.7,9.4-5.6,16.4c-1.1-2.5-2.2-6.7-2.2-10.6C369.7,199.4,371.4,190.3,375.3,190.3z M360.8,256.1c-5.8-2.5-9.7-7.5-15.5-9.7
	c1.7-1.7,4.7-4.7,9.2-8.6c3.9-3.3,6.7-6.1,8.6-8.6c1.1,2.5,1.1,5.3,1.9,7.5c0.8,3.9,1.1,6.7,1.1,8.9
	C366.1,250,363.6,253.3,360.8,256.1z M426.9,248.9c-8.9,7.8-16.1,11.4-21.7,11.4c-6.4-0.3-9.2-2.8-9.2-9.2
	c-0.3-8.3,3.3-19.4,10.3-32.8c7.8-15,15.3-21.9,22.2-21.9c2.5,0,5.8,0.8,13.9,6.1C437.2,217.5,428.1,233.6,426.9,248.9z"/>
<path fill="#FFFFFF" d="M338.9,253c-5.1,2.4-10.3,3.9-15.3,3.9c-9.7,0-5.5-11.1-3.6-16.1c5-12.8,10.8-23.6,15.3-35.3
	c1.1-3.1,2.8-9.2,2.2-12.5c-0.3-2.5-13.3,2.2-14.4,4.7c0,0-11.7,30-12.2,31.7c-0.7,2.1-1.4,4.1-1.9,5.9c-3.1,5.7-6,10.6-8.9,14.6
	c-4.2,5.8-8.3,8.9-12.8,8.9c-2.8,0-4.7-1.1-5.8-3.3c-1.4-2.2-2-4.7-2-7.2s0.6-5.3,1.1-7.8c0.8-2.5,1.7-5.3,2.5-8.1
	c0.8-3.1,1.4-4.7,2.2-5c14.4-13.1,26.9-31.4,37.2-54.4c3.1-6.1,4.4-11.4,4.4-15.6c0-1.1-0.3-1.9-0.3-2.8c-0.8-4.2-2.8-6.1-5.6-6.1
	c-4.2,0-8,2.2-12.2,6.7c-2,2.2-4.7,6.1-8.3,12.2c-3.6,5.8-7.8,14.7-13.1,26.7c-5.3,11.7-9.2,22.8-11.9,32.8c-0.3,0.6-0.8,2.5-2,6.1
	c-1.1,3.9-1.9,7.5-2.2,11.4c-0.3,2.2-0.3,4.2-0.3,5.6s0,3.1,0.6,5c0.3,1.9,1.7,3.6,3.6,5.3c1.9,1.7,5,2.5,8.6,2.5s7.8-1.1,11.9-3.9
	c1.7-0.8,3.3-2.5,5-4.5c1.7-2.2,3.1-3.6,4.2-5c0.5-0.6,1-1.3,1.5-2.2c-0.1,0.9-0.1,1.7-0.1,2.5c0,5.3,1.9,10.3,6.4,12.2
	c7.5,2.4,18.5-0.6,27.5-4.9C339.5,255.9,339,254.6,338.9,253z M300,189.2c5.6-12.5,10.3-21.1,13.6-25.8c3.3-4.7,5.8-7.2,7-7.2
	c0.8,0,1.4,1.1,1.4,3.6c0,2.2-1.4,7-4.2,13.6c-2.8,6.7-7.2,15-13.3,24.5c-6.1,9.4-12.2,17.5-18.6,23.9
	C289.4,212.5,294.2,201.7,300,189.2z"/>
</svg>
