<?xml version="1.0" encoding="utf-8"?>
<!-- Generator: Adobe Illustrator 18.1.1, SVG Export Plug-In . SVG Version: 6.00 Build 0)  -->
<svg version="1.1" id="Layer_1" xmlns="http://www.w3.org/2000/svg" xmlns:xlink="http://www.w3.org/1999/xlink" x="0px" y="0px"
	 viewBox="380 380 100 100" enable-background="new 380 380 100 100" xml:space="preserve">
<path fill="#63CDF1" d="M380,380h100v100H380V380z"/>
<path fill="#FFFFFF" d="M397.5,399.8c0,0,18.6,21.4,32.8,17.8c-0.1-4.2,0.4-19.2,14.4-19.9c8.1,0,10.9,4.6,11.6,5.8
	c2-0.9,7.1-2.8,9.4-5.2c-0.3,3.4-4.2,8.7-5.7,9.6c1.4,0.2,5.1-1.9,6.7-2.9c-0.7,3-2.2,6-7,9c-0.4,5.6,1.4,41.8-32.8,47.3
	c-26.8,4.4-33.6-7.3-33.6-7.3s9.7,2.4,21.6-5.2c-4.7-2-12.2-8.1-13.6-11.8c3,0.5,7.3,0,7.3,0s-8-1.8-11.8-16c1.8,0.8,5,1.4,6.3,1.6
	C401.2,420.4,392.5,418.7,397.5,399.8L397.5,399.8z"/>
</svg>
