<?xml version="1.0" encoding="utf-8"?>
<!-- Generator: Adobe Illustrator 18.1.1, SVG Export Plug-In . SVG Version: 6.00 Build 0)  -->
<svg version="1.1" id="Layer_1" xmlns="http://www.w3.org/2000/svg" xmlns:xlink="http://www.w3.org/1999/xlink" x="0px" y="0px"
	 viewBox="190 190 100 100" enable-background="new 190 190 100 100" xml:space="preserve">
<path fill="#87D3E0" d="M190,190h100v100H190V190z"/>
<path fill="#FFFFFF" d="M205.4,225.5l4,4.8c0,0,1.5-3.3,5-3.8s4.4,5.4,11,29.2s20.8,10.8,23.7,7.9c2.9-2.9,25.7-23.4,25.4-40.5
	s-18.1-17.9-29.5,2.1c5.9-1.2,11-1.2,9.8,4.9c-1.1,6.2-8.2,19.1-11.1,19.1c-2.9,0-4.5-3.7-5.7-9.3c-1.1-5.6-0.1-24.1-6.5-27.6
	C225.2,208.9,219.4,212.5,205.4,225.5L205.4,225.5z"/>
</svg>
